REM DIRINDEX 1\2,1\4,1\3\5,1\3\6,1\3\7
REM DIRNAME cjc081,folder01,folder02,folder03,folder04,folder05,folder06
TITLE ""
FILE "CD1Track59.mp3" MP3
  TRACK 01 AUDIO
    TITLE "0:"
    INDEX 01 00:00:00
  TRACK 02 AUDIO
    TITLE "5:cjc081_1031"
    INDEX 01 00:00:25
  TRACK 03 AUDIO
    TITLE "0:"
    INDEX 01 00:01:36
  TRACK 04 AUDIO
    TITLE "6:cjc081_1032"
    INDEX 01 00:02:06
  TRACK 05 AUDIO
    TITLE "0:"
    INDEX 01 00:03:14
  TRACK 06 AUDIO
    TITLE "5:cjc081_1033"
    INDEX 01 00:03:57
  TRACK 07 AUDIO
    TITLE "0:"
    INDEX 01 00:04:74
  TRACK 08 AUDIO
    TITLE "6:cjc081_1034"
    INDEX 01 00:05:50
  TRACK 09 AUDIO
    TITLE "0:"
    INDEX 01 00:11:13
  TRACK 10 AUDIO
    TITLE "5:cjc081_1035"
    INDEX 01 00:11:56
  TRACK 11 AUDIO
    TITLE "0:"
    INDEX 01 00:12:73
  TRACK 12 AUDIO
    TITLE "6:cjc081_1036"
    INDEX 01 00:13:45
  TRACK 13 AUDIO
    TITLE "0:"
    INDEX 01 00:16:44
  TRACK 14 AUDIO
    TITLE "5:cjc081_1037"
    INDEX 01 00:17:14
  TRACK 15 AUDIO
    TITLE "0:"
    INDEX 01 00:18:35
  TRACK 16 AUDIO
    TITLE "6:cjc081_1038"
    INDEX 01 00:19:09
  TRACK 17 AUDIO
    TITLE "0:"
    INDEX 01 00:20:04
  TRACK 18 AUDIO
    TITLE "5:cjc081_1039"
    INDEX 01 00:20:49
  TRACK 19 AUDIO
    TITLE "0:"
    INDEX 01 00:21:58
  TRACK 20 AUDIO
    TITLE "6:cjc081_1040"
    INDEX 01 00:22:30
  TRACK 21 AUDIO
    TITLE "0:"
    INDEX 01 00:23:59
  TRACK 22 AUDIO
    TITLE "5:cjc081_1041"
    INDEX 01 00:24:29
  TRACK 23 AUDIO
    TITLE "0:"
    INDEX 01 00:25:41
  TRACK 24 AUDIO
    TITLE "6:cjc081_1042"
    INDEX 01 00:26:09
  TRACK 25 AUDIO
    TITLE "0:"
    INDEX 01 00:27:61
  TRACK 26 AUDIO
    TITLE "5:cjc081_1043"
    INDEX 01 00:28:35
  TRACK 27 AUDIO
    TITLE "0:"
    INDEX 01 00:30:10
  TRACK 28 AUDIO
    TITLE "6:cjc081_1044"
    INDEX 01 00:30:59
  TRACK 29 AUDIO
    TITLE "0:"
    INDEX 01 00:32:00
  TRACK 30 AUDIO
    TITLE "5:cjc081_1045"
    INDEX 01 00:32:41
  TRACK 31 AUDIO
    TITLE "0:"
    INDEX 01 00:34:00
  TRACK 32 AUDIO
    TITLE "6:cjc081_1046"
    INDEX 01 00:34:42
  TRACK 33 AUDIO
    TITLE "0:"
    INDEX 01 00:35:70
  TRACK 34 AUDIO
    TITLE "5:cjc081_1047"
    INDEX 01 00:36:36
  TRACK 35 AUDIO
    TITLE "0:"
    INDEX 01 00:38:00
  TRACK 36 AUDIO
    TITLE "6:cjc081_1048"
    INDEX 01 00:38:45
  TRACK 37 AUDIO
    TITLE "0:"
    INDEX 01 00:39:66
  TRACK 38 AUDIO
    TITLE "5:cjc081_1049"
    INDEX 01 00:40:30
  TRACK 39 AUDIO
    TITLE "0:"
    INDEX 01 00:41:57
  TRACK 40 AUDIO
    TITLE "6:cjc081_1050"
    INDEX 01 00:42:23
  TRACK 41 AUDIO
    TITLE "0:"
    INDEX 01 00:45:14
  TRACK 42 AUDIO
    TITLE "5:cjc081_1051"
    INDEX 01 00:45:57
  TRACK 43 AUDIO
    TITLE "0:"
    INDEX 01 00:47:05
  TRACK 44 AUDIO
    TITLE "6:cjc081_1052"
    INDEX 01 00:47:52
  TRACK 45 AUDIO
    TITLE "0:"
    INDEX 01 00:50:62
  TRACK 46 AUDIO
    TITLE "5:cjc081_1053"
    INDEX 01 00:51:30
  TRACK 47 AUDIO
    TITLE "0:"
    INDEX 01 00:52:51
  TRACK 48 AUDIO
    TITLE "6:cjc081_1054"
    INDEX 01 00:53:23
  TRACK 49 AUDIO
    TITLE "0:"
    INDEX 01 00:54:68
  TRACK 50 AUDIO
    TITLE "5:cjc081_1055"
    INDEX 01 00:55:36
  TRACK 51 AUDIO
    TITLE "0:"
    INDEX 01 00:56:43
  TRACK 52 AUDIO
    TITLE "6:cjc081_1056"
    INDEX 01 00:57:15
  TRACK 53 AUDIO
    TITLE "0:"
    INDEX 01 00:59:06
  TRACK 54 AUDIO
    TITLE "5:cjc081_1057"
    INDEX 01 00:59:45
  TRACK 55 AUDIO
    TITLE "0:"
    INDEX 01 01:00:49
  TRACK 56 AUDIO
    TITLE "6:cjc081_1058"
    INDEX 01 01:01:27
  TRACK 57 AUDIO
    TITLE "0:"
    INDEX 01 01:02:50
  TRACK 58 AUDIO
    TITLE "7:cjc081_1059"
    INDEX 01 01:04:13
  TRACK 59 AUDIO
    TITLE "0:"
    INDEX 01 01:14:47
